<?xml version="1.0" encoding="UTF-8"?>
<svg xmlns="http://www.w3.org/2000/svg" xmlns:xlink="http://www.w3.org/1999/xlink" width="22px" height="20px" viewBox="0 0 22 20" version="1.1">
<g id="surface1">
<path style=" stroke:none;fill-rule:nonzero;fill:rgb(65.882355%,65.882355%,65.882355%);fill-opacity:1;" d="M 15.246094 10.640625 L 13.792969 9.113281 C 13.945312 8.289062 13.71875 7.519531 13.121094 6.796875 C 12.519531 6.078125 11.746094 5.796875 10.792969 5.957031 L 9.34375 4.429688 C 9.628906 4.289062 9.914062 4.183594 10.207031 4.113281 C 10.5 4.042969 10.8125 4.007812 11.144531 4.007812 C 12.394531 4.007812 13.457031 4.46875 14.332031 5.390625 C 15.207031 6.3125 15.644531 7.429688 15.644531 8.746094 C 15.644531 9.097656 15.609375 9.425781 15.542969 9.734375 C 15.476562 10.039062 15.378906 10.34375 15.246094 10.640625 Z M 18.445312 13.957031 L 16.996094 12.484375 C 17.628906 11.972656 18.191406 11.417969 18.683594 10.8125 C 19.171875 10.207031 19.59375 9.519531 19.945312 8.746094 C 19.109375 6.972656 17.914062 5.566406 16.355469 4.523438 C 14.796875 3.476562 13.0625 2.957031 11.144531 2.957031 C 10.660156 2.957031 10.1875 2.992188 9.71875 3.0625 C 9.253906 3.132812 8.792969 3.238281 8.34375 3.378906 L 6.792969 1.746094 C 7.476562 1.449219 8.175781 1.222656 8.894531 1.074219 C 9.609375 0.925781 10.359375 0.851562 11.144531 0.851562 C 13.527344 0.851562 15.667969 1.511719 17.570312 2.835938 C 19.46875 4.164062 20.894531 5.886719 21.84375 8.007812 C 21.894531 8.097656 21.925781 8.207031 21.945312 8.335938 C 21.960938 8.46875 21.96875 8.605469 21.96875 8.746094 C 21.96875 8.886719 21.957031 9.023438 21.933594 9.152344 C 21.90625 9.285156 21.878906 9.394531 21.84375 9.484375 C 21.460938 10.378906 20.980469 11.203125 20.40625 11.957031 C 19.832031 12.710938 19.175781 13.378906 18.445312 13.957031 Z M 18.246094 19.691406 L 14.746094 16.0625 C 14.160156 16.253906 13.574219 16.398438 12.980469 16.496094 C 12.390625 16.59375 11.777344 16.640625 11.144531 16.640625 C 8.761719 16.640625 6.621094 15.976562 4.71875 14.652344 C 2.820312 13.328125 1.394531 11.605469 0.445312 9.484375 C 0.394531 9.394531 0.359375 9.285156 0.34375 9.152344 C 0.328125 9.023438 0.320312 8.886719 0.320312 8.746094 C 0.320312 8.605469 0.328125 8.472656 0.34375 8.351562 C 0.359375 8.226562 0.394531 8.121094 0.445312 8.035156 C 0.792969 7.246094 1.210938 6.519531 1.695312 5.851562 C 2.175781 5.183594 2.710938 4.570312 3.292969 4.007812 L 1.21875 1.796875 C 1.035156 1.605469 0.945312 1.363281 0.945312 1.074219 C 0.945312 0.785156 1.042969 0.535156 1.246094 0.324219 C 1.425781 0.132812 1.660156 0.0351562 1.945312 0.0351562 C 2.226562 0.0351562 2.460938 0.132812 2.644531 0.324219 L 19.644531 18.21875 C 19.828125 18.414062 19.921875 18.652344 19.933594 18.941406 C 19.941406 19.234375 19.84375 19.484375 19.644531 19.691406 C 19.460938 19.886719 19.226562 19.984375 18.945312 19.984375 C 18.660156 19.984375 18.425781 19.886719 18.246094 19.691406 Z M 4.695312 5.484375 C 4.210938 5.9375 3.769531 6.4375 3.371094 6.984375 C 2.96875 7.527344 2.628906 8.113281 2.34375 8.746094 C 3.175781 10.519531 4.375 11.925781 5.933594 12.96875 C 7.488281 14.011719 9.226562 14.535156 11.144531 14.535156 C 11.476562 14.535156 11.800781 14.511719 12.121094 14.46875 C 12.4375 14.425781 12.761719 14.378906 13.09375 14.324219 L 12.195312 13.324219 C 12.011719 13.378906 11.835938 13.417969 11.667969 13.441406 C 11.503906 13.46875 11.328125 13.484375 11.144531 13.484375 C 9.894531 13.484375 8.832031 13.023438 7.957031 12.101562 C 7.082031 11.179688 6.644531 10.0625 6.644531 8.746094 C 6.644531 8.554688 6.65625 8.367188 6.683594 8.191406 C 6.707031 8.019531 6.746094 7.832031 6.792969 7.640625 Z M 4.695312 5.484375 "/>
</g>
</svg>
