<?xml version="1.0" encoding="UTF-8"?>
<svg xmlns="http://www.w3.org/2000/svg" xmlns:xlink="http://www.w3.org/1999/xlink" width="22px" height="20px" viewBox="0 0 22 20" version="1.1">
<g id="surface1">
<path style=" stroke:none;fill-rule:nonzero;fill:rgb(65.882355%,65.882355%,65.882355%);fill-opacity:1;" d="M 11.144531 16.011719 C 12.394531 16.011719 13.457031 15.464844 14.332031 14.371094 C 15.207031 13.277344 15.644531 11.949219 15.644531 10.386719 C 15.644531 8.824219 15.207031 7.496094 14.332031 6.402344 C 13.457031 5.308594 12.394531 4.761719 11.144531 4.761719 C 9.894531 4.761719 8.832031 5.308594 7.957031 6.402344 C 7.082031 7.496094 6.644531 8.824219 6.644531 10.386719 C 6.644531 11.949219 7.082031 13.277344 7.957031 14.371094 C 8.832031 15.464844 9.894531 16.011719 11.144531 16.011719 Z M 11.144531 13.761719 C 10.394531 13.761719 9.757812 13.433594 9.230469 12.777344 C 8.707031 12.121094 8.445312 11.324219 8.445312 10.386719 C 8.445312 9.449219 8.707031 8.652344 9.230469 7.996094 C 9.757812 7.339844 10.394531 7.011719 11.144531 7.011719 C 11.894531 7.011719 12.53125 7.339844 13.058594 7.996094 C 13.582031 8.652344 13.84375 9.449219 13.84375 10.386719 C 13.84375 11.324219 13.582031 12.121094 13.058594 12.777344 C 12.53125 13.433594 11.894531 13.761719 11.144531 13.761719 Z M 11.144531 19.761719 C 8.828125 19.761719 6.710938 18.996094 4.792969 17.464844 C 2.878906 15.933594 1.425781 13.863281 0.445312 11.261719 C 0.394531 11.15625 0.359375 11.027344 0.34375 10.871094 C 0.328125 10.714844 0.320312 10.550781 0.320312 10.386719 C 0.320312 10.21875 0.328125 10.058594 0.34375 9.902344 C 0.359375 9.746094 0.394531 9.613281 0.445312 9.511719 C 1.425781 6.90625 2.878906 4.839844 4.792969 3.308594 C 6.710938 1.777344 8.828125 1.011719 11.144531 1.011719 C 13.460938 1.011719 15.578125 1.777344 17.496094 3.308594 C 19.410156 4.839844 20.859375 6.90625 21.84375 9.511719 C 21.894531 9.613281 21.925781 9.746094 21.945312 9.902344 C 21.960938 10.058594 21.96875 10.21875 21.96875 10.386719 C 21.96875 10.550781 21.960938 10.714844 21.945312 10.871094 C 21.925781 11.027344 21.894531 11.15625 21.84375 11.261719 C 20.859375 13.863281 19.410156 15.933594 17.496094 17.464844 C 15.578125 18.996094 13.460938 19.761719 11.144531 19.761719 Z M 11.144531 17.261719 C 13.027344 17.261719 14.757812 16.640625 16.332031 15.402344 C 17.90625 14.160156 19.109375 12.488281 19.945312 10.386719 C 19.109375 8.28125 17.90625 6.609375 16.332031 5.371094 C 14.757812 4.128906 13.027344 3.511719 11.144531 3.511719 C 9.261719 3.511719 7.53125 4.128906 5.957031 5.371094 C 4.382812 6.609375 3.175781 8.28125 2.34375 10.386719 C 3.175781 12.488281 4.382812 14.160156 5.957031 15.402344 C 7.53125 16.640625 9.261719 17.261719 11.144531 17.261719 Z M 11.144531 17.261719 "/>
</g>
</svg>
